REM DIRINDEX 1\2,1\3,1\4,1\5
REM DIRNAME folder01,folder02,folder03,folder04,folder05
TITLE ""
FILE "1800_128.mp3" MP3
  TRACK 01 AUDIO
    TITLE "2:cjc044_3777"
    INDEX 01 00:00:00
  TRACK 02 AUDIO
    TITLE "0:"
    INDEX 01 00:01:13
  TRACK 03 AUDIO
    TITLE "3:cjc044_3778"
    INDEX 01 00:01:71
  TRACK 04 AUDIO
    TITLE "0:"
    INDEX 01 00:03:04
  TRACK 05 AUDIO
    TITLE "4:cjc044_3779"
    INDEX 01 00:03:59
  TRACK 06 AUDIO
    TITLE "0:"
    INDEX 01 00:05:10
  TRACK 07 AUDIO
    TITLE "5:cjc044_3780"
    INDEX 01 00:05:65
  TRACK 08 AUDIO
    TITLE "0:"
    INDEX 01 00:08:52
  TRACK 09 AUDIO
    TITLE "2:cjc044_3781"
    INDEX 01 00:10:41
  TRACK 10 AUDIO
    TITLE "0:"
    INDEX 01 00:11:48
  TRACK 11 AUDIO
    TITLE "3:cjc044_3782"
    INDEX 01 00:12:40
  TRACK 12 AUDIO
    TITLE "0:"
    INDEX 01 00:13:45
  TRACK 13 AUDIO
    TITLE "4:cjc044_3783"
    INDEX 01 00:14:29
  TRACK 14 AUDIO
    TITLE "0:"
    INDEX 01 00:15:36
  TRACK 15 AUDIO
    TITLE "5:cjc044_3784"
    INDEX 01 00:16:26
  TRACK 16 AUDIO
    TITLE "0:"
    INDEX 01 00:19:24
  TRACK 17 AUDIO
    TITLE "2:cjc044_3785"
    INDEX 01 00:21:11
  TRACK 18 AUDIO
    TITLE "0:"
    INDEX 01 00:22:07
  TRACK 19 AUDIO
    TITLE "3:cjc044_3786"
    INDEX 01 00:22:64
  TRACK 20 AUDIO
    TITLE "0:"
    INDEX 01 00:23:55
  TRACK 21 AUDIO
    TITLE "4:cjc044_3787"
    INDEX 01 00:24:35
  TRACK 22 AUDIO
    TITLE "0:"
    INDEX 01 00:25:37
  TRACK 23 AUDIO
    TITLE "5:cjc044_3788"
    INDEX 01 00:26:20
  TRACK 24 AUDIO
    TITLE "0:"
    INDEX 01 00:29:01
  TRACK 25 AUDIO
    TITLE "2:cjc044_3789"
    INDEX 01 00:30:65
  TRACK 26 AUDIO
    TITLE "0:"
    INDEX 01 00:32:00
  TRACK 27 AUDIO
    TITLE "3:cjc044_3790"
    INDEX 01 00:32:64
  TRACK 28 AUDIO
    TITLE "0:"
    INDEX 01 00:33:69
  TRACK 29 AUDIO
    TITLE "4:cjc044_3791"
    INDEX 01 00:34:49
  TRACK 30 AUDIO
    TITLE "0:"
    INDEX 01 00:35:55
  TRACK 31 AUDIO
    TITLE "5:cjc044_3792"
    INDEX 01 00:36:33
  TRACK 32 AUDIO
    TITLE "0:"
    INDEX 01 00:40:03
  TRACK 33 AUDIO
    TITLE "2:cjc044_3793"
    INDEX 01 00:41:63
  TRACK 34 AUDIO
    TITLE "0:"
    INDEX 01 00:42:63
  TRACK 35 AUDIO
    TITLE "3:cjc044_3794"
    INDEX 01 00:43:48
  TRACK 36 AUDIO
    TITLE "0:"
    INDEX 01 00:44:60
  TRACK 37 AUDIO
    TITLE "4:cjc044_3795"
    INDEX 01 00:45:43
  TRACK 38 AUDIO
    TITLE "0:"
    INDEX 01 00:46:45
  TRACK 39 AUDIO
    TITLE "5:cjc044_3796"
    INDEX 01 00:47:27
  TRACK 40 AUDIO
    TITLE "0:"
    INDEX 01 00:50:48
  TRACK 41 AUDIO
    TITLE "2:cjc044_3797"
    INDEX 01 00:52:39
  TRACK 42 AUDIO
    TITLE "0:"
    INDEX 01 00:53:49
  TRACK 43 AUDIO
    TITLE "3:cjc044_3798"
    INDEX 01 00:54:29
  TRACK 44 AUDIO
    TITLE "0:"
    INDEX 01 00:56:31
  TRACK 45 AUDIO
    TITLE "4:cjc044_3799"
    INDEX 01 00:57:13
  TRACK 46 AUDIO
    TITLE "0:"
    INDEX 01 00:58:22
  TRACK 47 AUDIO
    TITLE "5:cjc044_3800"
    INDEX 01 00:59:04
  TRACK 48 AUDIO
    TITLE "0:"
    INDEX 01 01:02:34
  TRACK 49 AUDIO
    TITLE "2:cjc044_3801"
    INDEX 01 01:04:13
  TRACK 50 AUDIO
    TITLE "0:"
    INDEX 01 01:05:22
  TRACK 51 AUDIO
    TITLE "3:cjc044_3802"
    INDEX 01 01:06:06
  TRACK 52 AUDIO
    TITLE "0:"
    INDEX 01 01:07:19
  TRACK 53 AUDIO
    TITLE "4:cjc044_3803"
    INDEX 01 01:07:72
  TRACK 54 AUDIO
    TITLE "0:"
    INDEX 01 01:09:09
  TRACK 55 AUDIO
    TITLE "5:cjc044_3804"
    INDEX 01 01:09:69
  TRACK 56 AUDIO
    TITLE "0:"
    INDEX 01 01:13:16
  TRACK 57 AUDIO
    TITLE "2:cjc044_3805"
    INDEX 01 01:15:03
  TRACK 58 AUDIO
    TITLE "0:"
    INDEX 01 01:16:07
  TRACK 59 AUDIO
    TITLE "3:cjc044_3806"
    INDEX 01 01:16:73
  TRACK 60 AUDIO
    TITLE "0:"
    INDEX 01 01:17:73
  TRACK 61 AUDIO
    TITLE "4:cjc044_3807"
    INDEX 01 01:18:56
  TRACK 62 AUDIO
    TITLE "0:"
    INDEX 01 01:19:60
  TRACK 63 AUDIO
    TITLE "5:cjc044_3808"
    INDEX 01 01:20:46
  TRACK 64 AUDIO
    TITLE "0:"
    INDEX 01 01:24:10
  TRACK 65 AUDIO
    TITLE "2:cjc044_3809"
    INDEX 01 01:25:68
  TRACK 66 AUDIO
    TITLE "0:"
    INDEX 01 01:27:06
  TRACK 67 AUDIO
    TITLE "3:cjc044_3810"
    INDEX 01 01:27:53
  TRACK 68 AUDIO
    TITLE "0:"
    INDEX 01 01:28:72
  TRACK 69 AUDIO
    TITLE "4:cjc044_3811"
    INDEX 01 01:29:46
  TRACK 70 AUDIO
    TITLE "0:"
    INDEX 01 01:30:58
  TRACK 71 AUDIO
    TITLE "5:cjc044_3812"
    INDEX 01 01:31:28
  TRACK 72 AUDIO
    TITLE "0:"
    INDEX 01 01:34:67
